<?xml version="1.0" encoding="UTF-8"?>
<!DOCTYPE svg PUBLIC "-//W3C//DTD SVG 1.1//EN" "http://www.w3.org/Graphics/SVG/1.1/DTD/svg11.dtd">
<svg xmlns="http://www.w3.org/2000/svg" version="1.1" width="261px" height="120px" style="shape-rendering:geometricPrecision; text-rendering:geometricPrecision; image-rendering:optimizeQuality; fill-rule:evenodd; clip-rule:evenodd" xmlns:xlink="http://www.w3.org/1999/xlink">
<g><path style="opacity:0.646" fill="#000000" d="M 0.5,-0.5 C 1.83333,-0.5 3.16667,-0.5 4.5,-0.5C 6.73961,1.93027 7.73961,4.59693 7.5,7.5C 6.45199,8.3829 5.28533,9.04957 4,9.5C 2.2453,7.64159 0.745301,5.64159 -0.5,3.5C -0.5,2.5 -0.5,1.5 -0.5,0.5C 0.166667,0.5 0.5,0.166667 0.5,-0.5 Z"/></g>
<g><path style="opacity:0.69" fill="#000000" d="M 6.5,10.5 C 15.1215,9.9325 17.1215,13.0992 12.5,20C 4.99945,20.3304 2.99945,17.1637 6.5,10.5 Z"/></g>
<g><path style="opacity:0.832" fill="#000000" d="M 86.5,14.5 C 103.569,15.0591 109.402,23.3924 104,39.5C 99.1631,45.6123 92.9964,47.6123 85.5,45.5C 87.524,43.3102 89.3573,40.9768 91,38.5C 91.498,35.5184 91.6646,32.5184 91.5,29.5C 85.8333,29.5 80.1667,29.5 74.5,29.5C 75.5692,22.1029 79.5692,17.1029 86.5,14.5 Z"/></g>
<g><path style="opacity:0.56" fill="#000000" d="M 14.5,21.5 C 15.675,21.281 16.675,21.6143 17.5,22.5C 21.8855,29.2827 20.3855,30.9494 13,27.5C 10.8549,24.7997 11.3549,22.7997 14.5,21.5 Z"/></g>
<g><path style="opacity:0.854" fill="#000000" d="M -0.5,32.5 C 29.1667,32.5 58.8333,32.5 88.5,32.5C 88.6621,34.5273 88.4955,36.5273 88,38.5C 87.586,38.9574 87.086,39.2907 86.5,39.5C 81.2649,38.181 75.9315,37.5143 70.5,37.5C 53.0186,39.3727 35.5186,41.0394 18,42.5C 12.7777,42.5056 7.61107,42.0056 2.5,41C 1.36362,39.8549 0.363622,38.6883 -0.5,37.5C -0.5,35.8333 -0.5,34.1667 -0.5,32.5 Z"/></g>
<g><path style="opacity:0.889" fill="#000000" d="M 60.5,40.5 C 66.8421,40.3338 73.1754,40.5005 79.5,41C 80.938,41.2189 82.2713,41.7189 83.5,42.5C 72.0252,50.8076 60.6919,59.3076 49.5,68C 45.3749,68.8538 41.3749,68.5204 37.5,67C 28.4495,59.6153 19.1162,52.6153 9.5,46C 26.7558,45.2156 43.7558,43.3823 60.5,40.5 Z"/></g>
<g><path style="opacity:0.78" fill="#000000" d="M 102.5,77.5 C 101.437,80.2173 100.437,83.0506 99.5,86C 98.5,86.5 97.5,87 96.5,87.5C 94.9373,86.0552 93.604,84.3885 92.5,82.5C 90.36,83.4733 88.6933,84.9733 87.5,87C 84.1861,88.1647 82.1861,86.9981 81.5,83.5C 83.6003,78.5039 84.9336,73.3372 85.5,68C 83.1546,67.8301 80.8212,68.1635 78.5,69C 76.5,73.3333 74.5,77.6667 72.5,82C 75.4354,84.856 74.9354,86.6894 71,87.5C 67.6927,86.7521 66.1927,84.5854 66.5,81C 66.9914,77.3587 67.9914,73.8587 69.5,70.5C 67.2573,69.5258 64.924,69.1924 62.5,69.5C 61.6669,67.2478 61.6669,65.0811 62.5,63C 70.5073,61.9976 78.5073,61.331 86.5,61C 87.3333,61.8333 88.1667,62.6667 89,63.5C 89.1705,65.7148 89.8372,67.7148 91,69.5C 91.6869,71.5675 91.5202,73.5675 90.5,75.5C 92.0026,76.0522 93.6693,76.0522 95.5,75.5C 95.6143,71.4099 96.781,67.7432 99,64.5C 102.147,68.2056 103.313,72.539 102.5,77.5 Z"/></g>
<g><path style="opacity:0.766" fill="#000000" d="M 102.5,77.5 C 103.117,77.3893 103.617,77.056 104,76.5C 104.218,73.5738 104.718,70.7405 105.5,68C 110.601,65.9045 115.767,65.4045 121,66.5C 121.916,70.7787 120.083,72.6121 115.5,72C 117.348,73.4925 118.181,75.3259 118,77.5C 114.863,78.8234 111.697,79.9901 108.5,81C 111.373,80.993 114.206,80.493 117,79.5C 120.505,81.2599 121.005,83.4266 118.5,86C 113.905,87.3929 109.239,87.7262 104.5,87C 102.66,84.1737 101.994,81.0071 102.5,77.5 Z"/></g>
<g><path style="opacity:0.729" fill="#000000" d="M 64.5,116.5 C 64.8417,117.338 65.5084,117.672 66.5,117.5C 66.1667,118.167 65.8333,118.833 65.5,119.5C 51.1667,119.5 36.8333,119.5 22.5,119.5C 22.3893,118.883 22.056,118.383 21.5,118C 27.9542,114.689 34.4542,111.523 41,108.5C 41.4999,96.1712 41.6665,83.8378 41.5,71.5C 43.5,71.5 45.5,71.5 47.5,71.5C 47.3335,83.8378 47.5001,96.1712 48,108.5C 53.323,111.578 58.823,114.245 64.5,116.5 Z"/></g>
<g><path style="opacity:0.787" fill="#000000" d="M 224.5,119.5 C 222.5,119.5 220.5,119.5 218.5,119.5C 216.36,117.505 215.027,115.005 214.5,112C 215.726,108.157 217.059,104.323 218.5,100.5C 216.833,99.1667 215.167,99.1667 213.5,100.5C 212.578,103.684 211.578,106.851 210.5,110C 210.93,111.434 211.764,112.601 213,113.5C 213.781,114.944 213.614,116.277 212.5,117.5C 208.697,118.104 205.031,118.77 201.5,119.5C 200.167,119.5 198.833,119.5 197.5,119.5C 196.91,118.234 196.41,116.901 196,115.5C 195.31,117.35 194.144,118.684 192.5,119.5C 191.5,119.5 190.5,119.5 189.5,119.5C 187.221,118.132 186.554,116.298 187.5,114C 185.19,113.503 182.857,113.337 180.5,113.5C 180.972,116.358 179.972,118.358 177.5,119.5C 176.5,119.5 175.5,119.5 174.5,119.5C 173.711,118.085 173.044,116.585 172.5,115C 174.842,109.985 177.175,104.985 179.5,100C 176.527,99.617 173.694,100.117 171,101.5C 169.441,105.619 167.607,109.619 165.5,113.5C 167.546,115.281 167.88,117.281 166.5,119.5C 165.167,119.5 163.833,119.5 162.5,119.5C 160.32,117.969 159.32,115.802 159.5,113C 159.991,109.359 160.991,105.859 162.5,102.5C 159.743,101.971 157.243,100.971 155,99.5C 151.966,102.275 148.799,104.942 145.5,107.5C 145.709,108.086 146.043,108.586 146.5,109C 149.167,109.333 151.833,109.667 154.5,110C 156.602,111.733 156.935,113.733 155.5,116C 149.723,117.972 144.556,116.805 140,112.5C 137.675,114.501 135.842,116.834 134.5,119.5C 133.5,119.5 132.5,119.5 131.5,119.5C 130.313,118.466 129.48,117.133 129,115.5C 127.208,117.628 125.042,118.961 122.5,119.5C 121.833,119.5 121.167,119.5 120.5,119.5C 117.109,118.859 113.776,117.692 110.5,116C 109.107,114.829 108.273,113.329 108,111.5C 107.215,113.286 106.049,114.786 104.5,116C 101.429,117.296 98.4289,118.462 95.5,119.5C 92.8333,119.5 90.1667,119.5 87.5,119.5C 85.5,118.167 83.8333,116.5 82.5,114.5C 83.5816,103.738 89.2483,96.4046 99.5,92.5C 101.088,93.0096 102.255,94.0096 103,95.5C 103.75,99.4187 105.083,103.085 107,106.5C 111.194,98.6241 117.694,94.4575 126.5,94C 128.396,95.8083 128.896,97.975 128,100.5C 122.55,102.137 118.05,105.137 114.5,109.5C 115.025,110.192 115.692,110.692 116.5,111C 119.833,111.333 123.167,111.667 126.5,112C 127.126,112.75 127.626,113.584 128,114.5C 129.647,106.546 132.647,99.2132 137,92.5C 141.195,93.4738 143.028,95.8071 142.5,99.5C 144.938,97.1964 147.771,95.5297 151,94.5C 152.261,94.7591 153.261,95.4258 154,96.5C 158.217,95.0035 162.55,93.6702 167,92.5C 169.923,93.4637 172.923,93.4637 176,92.5C 179.057,92.7097 181.557,94.043 183.5,96.5C 184.833,95.1667 186.167,93.8333 187.5,92.5C 189.059,93.0736 190.559,93.7402 192,94.5C 192.539,97.5285 193.206,100.529 194,103.5C 195.733,104.833 197.233,106.333 198.5,108C 198.05,109.285 197.383,110.452 196.5,111.5C 198.353,112.76 200.186,112.76 202,111.5C 203.928,108.149 205.428,104.649 206.5,101C 201.975,100.618 200.309,98.1177 201.5,93.5C 206.481,92.6684 211.481,92.5017 216.5,93C 218.061,93.3176 219.228,94.1509 220,95.5C 221.669,92.0909 224.002,91.7575 227,94.5C 227.667,96.5 227.667,98.5 227,100.5C 225.426,103.955 223.926,107.455 222.5,111C 226.092,110.498 229.759,110.498 233.5,111C 236.553,112.581 237.22,114.914 235.5,118C 233.765,118.651 232.098,118.485 230.5,117.5C 228.343,118.05 226.343,118.717 224.5,119.5 Z M 95.5,103.5 C 96.552,103.351 97.552,103.517 98.5,104C 102.712,107.503 102.045,109.836 96.5,111C 94.1667,111.667 91.8333,111.667 89.5,111C 91.3336,108.337 93.3336,105.837 95.5,103.5 Z M 185.5,104.5 C 186.289,104.783 186.956,105.283 187.5,106C 186.184,106.528 185.517,106.028 185.5,104.5 Z"/></g>
<g><path style="opacity:0.775" fill="#000000" d="M 260.5,97.5 C 260.5,98.1667 260.5,98.8333 260.5,99.5C 256.585,100.267 252.585,100.767 248.5,101C 252.641,103.785 254.141,107.618 253,112.5C 250.495,115.853 247.329,118.186 243.5,119.5C 241.833,119.5 240.167,119.5 238.5,119.5C 237.631,117.283 237.298,114.95 237.5,112.5C 241.482,112.34 244.816,110.84 247.5,108C 243.514,107.202 239.681,106.035 236,104.5C 235.048,101.356 235.881,98.8565 238.5,97C 244.537,93.7351 250.871,92.5684 257.5,93.5C 258.521,94.9014 259.521,96.2347 260.5,97.5 Z"/></g>
<g><path style="opacity:0.777" fill="#000000" d="M 82.5,114.5 C 81.6057,117.545 79.6057,119.212 76.5,119.5C 75.8333,119.5 75.1667,119.5 74.5,119.5C 71.997,118.629 69.3303,117.963 66.5,117.5C 66.1583,116.662 65.4916,116.328 64.5,116.5C 59.2951,108.225 60.9617,101.725 69.5,97C 72.1744,95.4117 75.0078,94.245 78,93.5C 82.5109,94.2936 83.8442,96.6269 82,100.5C 76.7445,102.207 72.2445,105.04 68.5,109C 68.9054,109.945 69.572,110.612 70.5,111C 73.8333,111.333 77.1667,111.667 80.5,112C 81.0659,112.995 81.7326,113.828 82.5,114.5 Z"/></g>
</svg>
